<svg width="100" height="100" viewBox="0 0 100 100" xmlns="http://www.w3.org/2000/svg"><path d="M80 50 L89.23141121612922 57.80361288064513 L86.95518130045147 65.3073372946036 L74.94408836907635 66.66710699058807 L71.21320343559643 71.21320343559643 L72.2228093207841 83.25878449210181 L65.3073372946036 86.95518130045147 L55.85270966048385 79.42355841209691 L50 80 L42.196387119354874 89.23141121612922 L34.692662705396415 86.95518130045147 L33.33289300941194 74.94408836907635 L28.786796564403577 71.21320343559643 L16.74121550789819 72.22280932078408 L13.044818699548529 65.3073372946036 L20.576441587903087 55.85270966048386 L20 50.00000000000001 L10.768588783870783 42.19638711935487 L13.044818699548529 34.692662705396415 L25.055911630923635 33.33289300941194 L28.78679656440357 28.786796564403577 L27.777190679215913 16.74121550789819 L34.69266270539639 13.044818699548543 L44.14729033951614 20.57644158790309 L49.99999999999999 20 L57.80361288064513 10.768588783870783 L65.3073372946036 13.044818699548536 L66.66710699058805 25.055911630923635 L71.21320343559643 28.78679656440357 L83.25878449210181 27.777190679215913 L86.95518130045146 34.69266270539639 L79.42355841209691 44.14729033951614 Z M 50 35 A 15 15 0 1 0 50 65 A 15 15 0 1 0 50 35 Z M18 0 L24.148145657226706 6.4704761275630185 L21.65063509461097 12.499999999999998 L12.727922061357857 12.727922061357855 L9.000000000000002 15.588457268119894 L6.4704761275630185 24.148145657226706 L1.5308084989341915e-15 25 L-4.6587428118453715 17.38666487320323 L-8.999999999999996 15.588457268119896 L-17.677669529663685 17.67766952966369 L-21.65063509461097 12.499999999999998 L-17.386664873203227 4.658742811845379 L-18 2.204364238465236e-15 L-24.148145657226706 -6.47047612756302 L-21.65063509461097 -12.499999999999993 L-12.727922061357862 -12.727922061357848 L-9.000000000000007 -15.588457268119893 L-6.470476127563016 -24.148145657226706 L-4.592425496802574e-15 -25 L4.658742811845365 -17.38666487320323 L9.000000000000002 -15.588457268119894 L17.677669529663685 -17.677669529663692 L21.65063509461096 -12.50000000000001 L17.386664873203227 -4.658742811845388 Z M 0 -9 A 9 9 0 1 0 0 9 A 9 9 0 1 0 0 -9 Z M118 0 L124.1481456572267 6.4704761275630185 L121.65063509461098 12.499999999999998 L112.72792206135786 12.727922061357855 L109 15.588457268119894 L106.47047612756302 24.148145657226706 L100 25 L95.34125718815463 17.38666487320323 L91 15.588457268119896 L82.32233047033631 17.67766952966369 L78.34936490538902 12.499999999999998 L82.61333512679677 4.658742811845379 L82 2.204364238465236e-15 L75.8518543427733 -6.47047612756302 L78.34936490538902 -12.499999999999993 L87.27207793864214 -12.727922061357848 L91 -15.588457268119893 L93.52952387243698 -24.148145657226706 L100 -25 L104.65874281184537 -17.38666487320323 L109 -15.588457268119894 L117.67766952966369 -17.677669529663692 L121.65063509461096 -12.50000000000001 L117.38666487320323 -4.658742811845388 Z M 100 -9 A 9 9 0 1 0 100 9 A 9 9 0 1 0 100 -9 Z M18 100 L24.148145657226706 106.47047612756302 L21.65063509461097 112.5 L12.727922061357857 112.72792206135786 L9.000000000000002 115.5884572681199 L6.4704761275630185 124.1481456572267 L1.5308084989341915e-15 125 L-4.6587428118453715 117.38666487320323 L-8.999999999999996 115.5884572681199 L-17.677669529663685 117.67766952966369 L-21.65063509461097 112.5 L-17.386664873203227 104.65874281184537 L-18 100 L-24.148145657226706 93.52952387243698 L-21.65063509461097 87.5 L-12.727922061357862 87.27207793864216 L-9.000000000000007 84.4115427318801 L-6.470476127563016 75.8518543427733 L-4.592425496802574e-15 75 L4.658742811845365 82.61333512679677 L9.000000000000002 84.4115427318801 L17.677669529663685 82.32233047033631 L21.65063509461096 87.49999999999999 L17.386664873203227 95.34125718815461 Z M 0 91 A 9 9 0 1 0 0 109 A 9 9 0 1 0 0 91 Z M118 100 L124.1481456572267 106.47047612756302 L121.65063509461098 112.5 L112.72792206135786 112.72792206135786 L109 115.5884572681199 L106.47047612756302 124.1481456572267 L100 125 L95.34125718815463 117.38666487320323 L91 115.5884572681199 L82.32233047033631 117.67766952966369 L78.34936490538902 112.5 L82.61333512679677 104.65874281184537 L82 100 L75.8518543427733 93.52952387243698 L78.34936490538902 87.5 L87.27207793864214 87.27207793864216 L91 84.4115427318801 L93.52952387243698 75.8518543427733 L100 75 L104.65874281184537 82.61333512679677 L109 84.4115427318801 L117.67766952966369 82.32233047033631 L121.65063509461096 87.49999999999999 L117.38666487320323 95.34125718815461 Z M 100 91 A 9 9 0 1 0 100 109 A 9 9 0 1 0 100 91 Z " fill="black" stroke="none" fill-rule="evenodd"/></svg>