<svg width="104" height="180" viewBox="0 0 104 180" xmlns="http://www.w3.org/2000/svg"><path d="M103.96152422706632 90 L52.00000000000001 120 L0.038475772933693975 90.00000000000003 L0.03847577293367266 30.000000000000018 L51.999999999999986 0 L103.96152422706632 30.00000000000002 Z M95.30127018922194 35.000000000000014 L51.99999999999999 10 L8.698729810778062 35.000000000000014 L8.698729810778076 85.00000000000001 L52 110 L95.30127018922194 85 Z M51.96152422706632 180 L3.67394039744206e-15 210 L-51.961524227066306 180.00000000000003 L-51.96152422706633 120.00000000000001 L-1.1021821192326178e-14 90 L51.96152422706633 120.00000000000003 Z M43.30127018922194 125.00000000000001 L-9.184850993605149e-15 100 L-43.30127018922194 125.00000000000001 L-43.301270189221924 175.00000000000003 L3.061616997868383e-15 200 L43.30127018922194 175 Z M155.96152422706632 180 L104 210 L52.038475772933694 180.00000000000003 L52.03847577293367 120.00000000000001 L103.99999999999999 90 L155.96152422706632 120.00000000000003 Z M147.30127018922195 125.00000000000001 L103.99999999999999 100 L60.69872981077806 125.00000000000001 L60.698729810778076 175.00000000000003 L104 200 L147.30127018922195 175 Z M103.96152422706632 270 L52.00000000000001 300 L0.038475772933693975 270 L0.03847577293367266 210.00000000000003 L51.999999999999986 180 L103.96152422706632 210.00000000000003 Z M95.30127018922194 215.00000000000003 L51.99999999999999 190 L8.698729810778062 215 L8.698729810778076 265 L52 290 L95.30127018922194 265 Z M51.96152422706632 -3.552713678800501e-15 L3.67394039744206e-15 30 L-51.961524227066306 2.1316282072803006e-14 L-51.96152422706633 -59.999999999999986 L-1.1021821192326178e-14 -90 L51.96152422706633 -59.99999999999998 Z M43.30127018922194 -54.999999999999986 L-9.184850993605149e-15 -80 L-43.30127018922194 -54.999999999999986 L-43.301270189221924 -4.999999999999982 L3.061616997868383e-15 20 L43.30127018922194 -5.0000000000000036 Z M155.96152422706632 -3.552713678800501e-15 L104 30 L52.038475772933694 2.1316282072803006e-14 L52.03847577293367 -59.999999999999986 L103.99999999999999 -90 L155.96152422706632 -59.99999999999998 Z M147.30127018922195 -54.999999999999986 L103.99999999999999 -80 L60.69872981077806 -54.999999999999986 L60.698729810778076 -4.999999999999982 L104 20 L147.30127018922195 -5.0000000000000036 Z " fill="black" stroke="none" fill-rule="evenodd"/></svg>