<svg xmlns="http://www.w3.org/2000/svg" width="100" height="100" viewBox="0 0 100 100"><path d="M 0 0 C 20 -15, 30 25, 50 0 C 70 -25, 80 15, 100 0 L 100 8 C 80 23, 70 -17, 50 8 C 30 33, 20 -7, 0 8 Z M 0 0 C -15 20, 25 30, 0 50 C -25 70, 15 80, 0 100 L 8 100 C 23 80, -17 70, 8 50 C 33 30, -7 20, 8 0 Z M 0 20 C 20 5, 30 45, 50 20 C 70 -5, 80 35, 100 20 L 100 28 C 80 43, 70 3, 50 28 C 30 53, 20 13, 0 28 Z M 20 0 C 5 20, 45 30, 20 50 C -5 70, 35 80, 20 100 L 28 100 C 43 80, 3 70, 28 50 C 53 30, 13 20, 28 0 Z M 0 40 C 20 25, 30 65, 50 40 C 70 15, 80 55, 100 40 L 100 48 C 80 63, 70 23, 50 48 C 30 73, 20 33, 0 48 Z M 40 0 C 25 20, 65 30, 40 50 C 15 70, 55 80, 40 100 L 48 100 C 63 80, 23 70, 48 50 C 73 30, 33 20, 48 0 Z M 0 60 C 20 45, 30 85, 50 60 C 70 35, 80 75, 100 60 L 100 68 C 80 83, 70 43, 50 68 C 30 93, 20 53, 0 68 Z M 60 0 C 45 20, 85 30, 60 50 C 35 70, 75 80, 60 100 L 68 100 C 83 80, 43 70, 68 50 C 93 30, 53 20, 68 0 Z M 0 80 C 20 65, 30 105, 50 80 C 70 55, 80 95, 100 80 L 100 88 C 80 103, 70 63, 50 88 C 30 113, 20 73, 0 88 Z M 80 0 C 65 20, 105 30, 80 50 C 55 70, 95 80, 80 100 L 88 100 C 103 80, 63 70, 88 50 C 113 30, 73 20, 88 0 Z " fill="black" stroke="none" fill-rule="evenodd"/></svg>