<svg xmlns="http://www.w3.org/2000/svg" width="100" height="100" viewBox="0 0 100 100"><path d="M 25.306178490593634 13.964959017958282 A 5 5 0 0 0 19.865967381699935 22.355674308722808 L -5.306178490593635 6.035040982041715 A 5 5 0 0 0 0.1340326183000622 -2.3556743087228087 Z M -0.6859571808390212 18.346231548152538 A 5 5 0 0 0 8.443495326437262 14.265410930018632 L 20.685957180839022 41.65376845184746 A 5 5 0 0 0 11.556504673562738 45.73458906998136 Z M 12.626386372150547 65.59173161083085 A 5 5 0 0 0 2.7460701312219324 64.049217111955 L 7.373613627849453 34.408268389169145 A 5 5 0 0 0 17.253929868778066 35.950782888045005 Z M 16.27850512238719 55.48861228454845 A 5 5 0 0 0 23.729636727180665 62.15799290107108 L 3.72149487761281 84.51138771545155 A 5 5 0 0 0 -3.729636727180666 77.84200709892892 Z M -3.1626161588620634 98.7604529480195 A 5 5 0 0 0 -5.7863646959013355 89.11079266309837 L 23.162616158862065 81.2395470519805 A 5 5 0 0 0 25.786364695901334 90.88920733690163 Z M 25.810247811738435 9.81009441445747 A 5 5 0 0 0 22.762141600716255 19.33422421860903 L -5.810247811738437 10.18990558554253 A 5 5 0 0 0 -2.7621416007162534 0.6657757813909706 Z M 19.314042819160978 -1.653768451847463 A 5 5 0 0 0 28.44349532643726 -5.734589069981367 L 40.68595718083902 21.653768451847462 A 5 5 0 0 0 31.556504673562735 25.734589069981368 Z M 32.62638637215055 45.591731610830855 A 5 5 0 0 0 22.74607013122193 44.049217111954995 L 27.373613627849455 14.408268389169145 A 5 5 0 0 0 37.25392986877807 15.950782888045001 Z M 36.278505122387195 35.48861228454845 A 5 5 0 0 0 43.72963672718067 42.15799290107108 L 23.72149487761281 64.51138771545155 A 5 5 0 0 0 16.270363272819335 57.84200709892892 Z M 16.837383841137935 78.7604529480195 A 5 5 0 0 0 14.213635304098664 69.11079266309837 L 43.16261615886206 61.239547051980495 A 5 5 0 0 0 45.786364695901334 70.88920733690163 Z M 45.81024781173844 89.81009441445747 A 5 5 0 0 0 42.762141600716255 99.33422421860902 L 14.189752188261563 90.18990558554253 A 5 5 0 0 0 17.237858399283745 80.66577578139098 Z M 16.630758545916073 1.5582357920631833 A 5 5 0 0 0 24.36966536149493 -4.774956238799856 L 43.36924145408393 18.441764207936817 A 5 5 0 0 0 35.63033463850507 24.774956238799856 Z M 52.62638637215055 25.591731610830855 A 5 5 0 0 0 42.74607013122193 24.049217111954995 L 47.37361362784945 -5.5917316108308555 A 5 5 0 0 0 57.25392986877807 -4.049217111954999 Z M 56.278505122387195 15.488612284548452 A 5 5 0 0 0 63.72963672718067 22.157992901071083 L 43.721494877612805 44.51138771545155 A 5 5 0 0 0 36.27036327281933 37.84200709892892 Z M 36.83738384113794 58.7604529480195 A 5 5 0 0 0 34.213635304098666 49.11079266309836 L 63.16261615886206 41.2395470519805 A 5 5 0 0 0 65.78636469590133 50.88920733690164 Z M 65.81024781173844 69.81009441445747 A 5 5 0 0 0 62.762141600716255 79.33422421860902 L 34.18975218826156 70.18990558554253 A 5 5 0 0 0 37.237858399283745 60.66577578139098 Z M 36.63075854591607 81.55823579206319 A 5 5 0 0 0 44.36966536149493 75.22504376120014 L 63.36924145408393 98.44176420793681 A 5 5 0 0 0 55.63033463850507 104.77495623879986 Z M 56.62525192720259 24.35639358965536 A 5 5 0 0 0 46.68636538796884 25.460266028045893 L 43.37474807279741 -4.356393589655363 A 5 5 0 0 0 53.31363461203116 -5.460266028045892 Z M 76.27850512238719 -4.511387715451548 A 5 5 0 0 0 83.72963672718068 2.1579929010710828 L 63.721494877612805 24.511387715451548 A 5 5 0 0 0 56.27036327281933 17.842007098928917 Z M 56.83738384113794 38.7604529480195 A 5 5 0 0 0 54.213635304098666 29.11079266309836 L 83.16261615886206 21.239547051980498 A 5 5 0 0 0 85.78636469590133 30.889207336901638 Z M 85.81024781173844 49.810094414457474 A 5 5 0 0 0 82.76214160071626 59.33422421860903 L 54.18975218826156 50.189905585542526 A 5 5 0 0 0 57.237858399283745 40.66577578139097 Z M 56.63075854591607 61.558235792063186 A 5 5 0 0 0 64.36966536149492 55.22504376120014 L 83.36924145408392 78.44176420793681 A 5 5 0 0 0 75.63033463850508 84.77495623879986 Z M 76.62525192720258 104.35639358965535 A 5 5 0 0 0 66.68636538796883 105.4602660280459 L 63.374748072797416 75.64360641034465 A 5 5 0 0 0 73.31363461203117 74.5397339719541 Z M 72.25112092393475 -5.650318034654195 A 5 5 0 0 0 81.19108755994036 -1.1695818733625418 L 67.74887907606525 25.650318034654195 A 5 5 0 0 0 58.80891244005964 21.169581873362542 Z M 76.83738384113794 18.760452948019502 A 5 5 0 0 0 74.21363530409867 9.110792663098362 L 103.16261615886206 1.239547051980499 A 5 5 0 0 0 105.78636469590133 10.889207336901638 Z M 105.81024781173844 29.810094414457474 A 5 5 0 0 0 102.76214160071626 39.33422421860903 L 74.18975218826156 30.189905585542526 A 5 5 0 0 0 77.23785839928374 20.66577578139097 Z M 76.63075854591608 41.558235792063186 A 5 5 0 0 0 84.36966536149492 35.22504376120014 L 103.36924145408392 58.441764207936814 A 5 5 0 0 0 95.63033463850508 64.77495623879986 Z M 96.62525192720258 84.35639358965535 A 5 5 0 0 0 86.68636538796883 85.4602660280459 L 83.37474807279742 55.64360641034464 A 5 5 0 0 0 93.31363461203117 54.539733971954114 Z M 92.25112092393475 74.34968196534581 A 5 5 0 0 0 101.19108755994036 78.83041812663745 L 87.74887907606525 105.65031803465419 A 5 5 0 0 0 78.80891244005964 101.16958187336255 Z M 79.59704512123356 21.907078978084787 A 5 5 0 0 0 74.53338871013592 13.283890255207975 L 100.40295487876644 -1.9070789780847877 A 5 5 0 0 0 105.46661128986408 6.716109744792024 Z M 25.810247811738435 9.81009441445747 A 5 5 0 0 0 22.762141600716255 19.33422421860903 L -5.810247811738437 10.18990558554253 A 5 5 0 0 0 -2.7621416007162534 0.6657757813909706 Z M -3.3692414540839257 21.558235792063183 A 5 5 0 0 0 4.36966536149493 15.225043761200144 L 23.369241454083927 38.441764207936814 A 5 5 0 0 0 15.630334638505069 44.77495623879986 Z M 16.625251927202584 64.35639358965535 A 5 5 0 0 0 6.68636538796884 65.4602660280459 L 3.3747480727974146 35.64360641034464 A 5 5 0 0 0 13.31363461203116 34.539733971954114 Z M 12.251120923934751 54.3496819653458 A 5 5 0 0 0 21.191087559940357 58.83041812663746 L 7.748879076065249 85.65031803465419 A 5 5 0 0 0 -1.191087559940355 81.16958187336255 Z M -0.4029548787664412 101.9070789780848 A 5 5 0 0 0 -5.466611289864075 93.28389025520798 L 20.40295487876644 78.0929210219152 A 5 5 0 0 0 25.466611289864073 86.71610974479202 Z M 25.20652559014505 5.668536104702824 A 5 5 0 0 0 24.764098809294396 15.658744237849305 L -5.2065255901450485 14.331463895297176 A 5 5 0 0 0 -4.764098809294392 4.341255762150695 Z " fill="black" stroke="none" fill-rule="evenodd"/></svg>