<svg xmlns="http://www.w3.org/2000/svg" width="100" height="100" viewBox="0 0 100 100"><path d="M0 25 C15 25, 15 10, 30 10 C45 10, 45 25, 50 25 C50 40, 65 40, 65 55 C65 70, 50 70, 50 75 C45 75, 45 90, 30 90 C15 90, 15 75, 0 75 C0 60, -15 60, -15 45 C-15 30, 0 30, 0 25 Z M0 75 C15 75, 15 60, 30 60 C45 60, 45 75, 50 75 C50 90, 65 90, 65 105 C65 120, 50 120, 50 125 C45 125, 45 140, 30 140 C15 140, 15 125, 0 125 C0 110, -15 110, -15 95 C-15 80, 0 80, 0 75 Z M0 125 C15 125, 15 110, 30 110 C45 110, 45 125, 50 125 C50 140, 65 140, 65 155 C65 170, 50 170, 50 175 C45 175, 45 190, 30 190 C15 190, 15 175, 0 175 C0 160, -15 160, -15 145 C-15 130, 0 130, 0 125 Z M50 25 C65 25, 65 10, 80 10 C95 10, 95 25, 100 25 C100 40, 115 40, 115 55 C115 70, 100 70, 100 75 C95 75, 95 90, 80 90 C65 90, 65 75, 50 75 C50 60, 35 60, 35 45 C35 30, 50 30, 50 25 Z M50 75 C65 75, 65 60, 80 60 C95 60, 95 75, 100 75 C100 90, 115 90, 115 105 C115 120, 100 120, 100 125 C95 125, 95 140, 80 140 C65 140, 65 125, 50 125 C50 110, 35 110, 35 95 C35 80, 50 80, 50 75 Z M50 125 C65 125, 65 110, 80 110 C95 110, 95 125, 100 125 C100 140, 115 140, 115 155 C115 170, 100 170, 100 175 C95 175, 95 190, 80 190 C65 190, 65 175, 50 175 C50 160, 35 160, 35 145 C35 130, 50 130, 50 125 Z M100 25 C115 25, 115 10, 130 10 C145 10, 145 25, 150 25 C150 40, 165 40, 165 55 C165 70, 150 70, 150 75 C145 75, 145 90, 130 90 C115 90, 115 75, 100 75 C100 60, 85 60, 85 45 C85 30, 100 30, 100 25 Z M100 75 C115 75, 115 60, 130 60 C145 60, 145 75, 150 75 C150 90, 165 90, 165 105 C165 120, 150 120, 150 125 C145 125, 145 140, 130 140 C115 140, 115 125, 100 125 C100 110, 85 110, 85 95 C85 80, 100 80, 100 75 Z M100 125 C115 125, 115 110, 130 110 C145 110, 145 125, 150 125 C150 140, 165 140, 165 155 C165 170, 150 170, 150 175 C145 175, 145 190, 130 190 C115 190, 115 175, 100 175 C100 160, 85 160, 85 145 C85 130, 100 130, 100 125 Z " fill="black" stroke="none" fill-rule="evenodd"/></svg>