<svg width="100" height="100" viewBox="0 0 100 100" xmlns="http://www.w3.org/2000/svg"><path d="M50 48 80 48 85 40 88 42 83 48 95 48 95 52 83 52 88 58 85 60 80 52 50 52 Z M51.732050807568875 49 66.73205080756888 74.98076211353316 76.16025403784438 75.31088913245534 75.92820323027551 78.90896534380866 68.23205080756888 77.57883832488648 74.23205080756888 87.97114317029974 70.76794919243112 89.97114317029974 64.76794919243112 79.57883832488648 62.07179676972449 86.90896534380866 58.83974596215562 85.31088913245534 63.267949192431125 76.98076211353316 48.267949192431125 51 Z M51.732050807568875 51 36.73205080756888 76.98076211353316 41.160254037844396 85.31088913245536 37.928203230275514 86.90896534380867 35.23205080756888 79.57883832488648 29.23205080756889 89.97114317029974 25.767949192431132 87.97114317029974 31.76794919243113 77.57883832488648 24.071796769724497 78.90896534380867 23.839745962155618 75.31088913245536 33.26794919243113 74.98076211353316 48.267949192431125 49 Z M50 52 20 52.00000000000001 15.000000000000002 60.00000000000001 12.000000000000002 58.00000000000001 17 52.00000000000001 5 52.00000000000001 5 48.00000000000001 17 48.00000000000001 11.999999999999998 42.00000000000001 14.999999999999998 40.00000000000001 20 48.00000000000001 50 48 Z M48.267949192431125 51 33.26794919243111 25.019237886466847 23.8397459621556 24.689110867544656 24.071796769724475 21.091034656191344 31.767949192431107 22.42116167511353 25.7679491924311 12.028856829700267 29.232050807568857 10.028856829700267 35.23205080756886 20.42116167511353 37.92820323027549 13.091034656191336 41.16025403784437 14.689110867544649 36.73205080756886 23.019237886466847 51.732050807568875 49 Z M48.267949192431125 49 63.267949192431125 23.019237886466843 58.83974596215562 14.689110867544649 62.07179676972449 13.091034656191333 64.76794919243112 20.421161675113527 70.76794919243112 10.02885682970026 74.23205080756888 12.02885682970026 68.23205080756888 22.421161675113527 75.92820323027551 21.091034656191333 76.16025403784438 24.68911086754465 66.73205080756888 25.019237886466843 51.732050807568875 51 Z " fill="black" stroke="none" fill-rule="evenodd"/></svg>