<svg width="100" height="100" viewBox="0 0 100 100" xmlns="http://www.w3.org/2000/svg"><path d="M50 10 L58.8167787843871 37.864745084375784 L88.04226065180615 37.6393202250021 L64.2658477444273 54.63525491562421 L73.51141009169893 82.36067977499789 L50 65 L26.48858990830108 82.36067977499789 L35.734152255572695 54.635254915624216 L11.957739348193854 37.63932022500211 L41.1832212156129 37.86474508437579 Z M1.2246467991473533e-15 -20 L4.408389392193548 -6.067627457812106 L19.02113032590307 -6.180339887498948 L7.132923872213651 2.3176274578121054 L11.755705045849464 16.18033988749895 L4.592425496802575e-16 7.5 L-11.75570504584946 16.18033988749895 L-7.132923872213651 2.3176274578121063 L-19.021130325903073 -6.1803398874989455 L-4.408389392193549 -6.067627457812105 Z M100 -20 L104.40838939219356 -6.067627457812106 L119.02113032590307 -6.180339887498948 L107.13292387221365 2.3176274578121054 L111.75570504584947 16.18033988749895 L100 7.5 L88.24429495415055 16.18033988749895 L92.86707612778635 2.3176274578121063 L80.97886967409693 -6.1803398874989455 L95.59161060780644 -6.067627457812105 Z M1.2246467991473533e-15 80 L4.408389392193548 93.93237254218789 L19.02113032590307 93.81966011250105 L7.132923872213651 102.31762745781211 L11.755705045849464 116.18033988749895 L4.592425496802575e-16 107.5 L-11.75570504584946 116.18033988749895 L-7.132923872213651 102.31762745781211 L-19.021130325903073 93.81966011250105 L-4.408389392193549 93.93237254218789 Z M100 80 L104.40838939219356 93.93237254218789 L119.02113032590307 93.81966011250105 L107.13292387221365 102.31762745781211 L111.75570504584947 116.18033988749895 L100 107.5 L88.24429495415055 116.18033988749895 L92.86707612778635 102.31762745781211 L80.97886967409693 93.81966011250105 L95.59161060780644 93.93237254218789 Z " fill="black" stroke="none" fill-rule="evenodd"/></svg>